<svg version="1.0" xmlns="http://www.w3.org/2000/svg"
 width="512.000000pt" height="512.000000pt" viewBox="0 0 512.000000 512.000000"
 preserveAspectRatio="xMidYMid meet">
<metadata>
Created by potrace 1.16, written by Peter Selinger 2001-2019
</metadata>
<g transform="translate(0.000000,512.000000) scale(0.100000,-0.100000)"
fill="#000000" stroke="none">
<path d="M905 5095 c-20 -19 -25 -34 -25 -72 0 -26 20 -319 44 -651 36 -490
47 -607 60 -627 12 -18 151 -93 477 -255 l460 -230 228 0 c220 0 229 -1 247
-21 10 -12 36 -30 58 -39 l38 -18 -58 -17 c-84 -24 -162 -67 -220 -118 l-50
-46 -314 45 -313 45 -349 175 -348 174 -225 180 c-197 157 -230 180 -261 180
-69 0 -115 -77 -81 -137 7 -12 118 -106 247 -210 l235 -188 360 -178 360 -178
279 -39 c154 -22 281 -41 283 -43 1 -2 -7 -23 -20 -47 l-22 -44 -360 -91 -360
-90 -360 -271 c-198 -149 -365 -277 -371 -285 -22 -29 -284 -656 -284 -681 0
-63 78 -105 138 -74 26 13 45 51 163 326 l133 310 338 254 339 254 272 67
c150 36 281 69 292 72 11 3 -102 -118 -251 -268 l-272 -274 -6 -55 c-3 -30
-24 -282 -47 -559 l-42 -503 98 -245 98 -245 284 -189 c245 -163 289 -189 322
-189 52 0 81 25 88 75 4 30 0 46 -15 65 -11 14 -134 102 -274 195 l-254 169
-78 199 -78 200 41 496 41 496 178 177 177 178 11 -63 c16 -83 57 -197 95
-266 122 -217 304 -335 514 -333 285 2 534 252 599 599 l11 63 177 -178 178
-177 41 -496 41 -496 -78 -200 -78 -199 -254 -169 c-140 -93 -263 -181 -274
-195 -15 -19 -19 -35 -15 -65 7 -50 36 -75 88 -75 33 0 77 26 322 189 l284
189 98 245 98 245 -42 503 c-23 277 -44 529 -47 559 l-6 55 -272 274 c-149
150 -262 271 -251 268 11 -3 142 -36 292 -72 l272 -67 339 -254 338 -254 133
-310 c118 -275 137 -313 163 -326 60 -31 138 11 138 74 0 25 -262 652 -284
681 -6 8 -173 136 -371 285 l-360 271 -360 90 -360 91 -22 44 c-13 24 -21 45
-20 47 2 2 129 21 283 43 l279 39 360 178 360 178 235 188 c129 104 240 198
247 210 34 60 -12 137 -81 137 -31 0 -64 -23 -261 -180 l-225 -180 -348 -174
-349 -175 -313 -45 -314 -45 -50 46 c-58 51 -136 94 -220 118 l-58 17 38 18
c22 9 48 27 58 39 18 20 27 21 247 21 l228 0 460 230 c324 161 465 237 477
254 13 21 24 140 60 633 24 334 44 627 44 651 0 32 -6 49 -25 67 -32 33 -93
34 -130 2 l-27 -22 -43 -609 c-24 -334 -45 -610 -47 -611 -2 -2 -184 -93 -405
-204 l-403 -201 -165 0 -165 0 0 39 0 38 49 5 c61 6 134 41 188 91 81 74 118
170 111 285 -9 174 -151 319 -324 330 -53 4 -64 1 -89 -21 -24 -20 -30 -33
-30 -65 0 -55 32 -88 93 -97 101 -15 163 -79 164 -169 2 -84 -64 -159 -152
-172 -25 -4 -51 -10 -58 -13 -8 -4 -28 8 -51 30 -95 90 -247 90 -342 0 -23
-22 -43 -34 -51 -30 -7 3 -33 9 -58 13 -168 26 -209 244 -60 321 14 7 46 16
72 20 61 9 93 42 93 97 0 32 -6 45 -30 65 -25 22 -36 25 -90 21 -255 -16 -407
-309 -278 -535 51 -88 161 -162 254 -171 l49 -5 0 -38 0 -39 -165 0 -165 0
-403 201 c-221 111 -403 202 -405 204 -2 1 -21 256 -43 566 -21 310 -42 584
-45 608 -8 59 -40 91 -94 91 -30 0 -47 -6 -65 -25z"/>
</g>
</svg>
